<?xml version="1.0" encoding="UTF-8" standalone="no"?>
<svg
   xmlns:dc="http://purl.org/dc/elements/1.1/"
   xmlns:cc="http://creativecommons.org/ns#"
   xmlns:rdf="http://www.w3.org/1999/02/22-rdf-syntax-ns#"
   xmlns:svg="http://www.w3.org/2000/svg"
   xmlns="http://www.w3.org/2000/svg"
   viewBox="0 0 10 10"
   version="1.1"
   id="svg6"
   width="10"
   height="10">
  <metadata
     id="metadata12">
    <rdf:RDF>
      <cc:Work
         rdf:about="">
        <dc:format>image/svg+xml</dc:format>
        <dc:type
           rdf:resource="http://purl.org/dc/dcmitype/StillImage" />
        <dc:title></dc:title>
      </cc:Work>
    </rdf:RDF>
  </metadata>
  <defs
     id="defs10" />
  <path
     style="fill:#ff0000;stroke-width:1"
     d="M 2.0313768,-7.342461e-7 V 0.31177927 l -0.5325746,-0.008 C 0.0360152,1.6216593 0.1607722,1.1851093 0.1406322,2.7329493 l 0.398244,-10e-4 c 0.0583,-0.92279 -0.0516,-0.50432 0.993661,-1.60869 h 0.3117746 v 0.74826 c -0.4710916,0.0164 -0.9364476,0.23327 -1.0600346,1.18475 v 6.9214 h 3.3671706 l 0.06236,-6.9214 c 0.0063,-0.69713 -0.409924,-0.97973 -1.072945,-1.18706 l 0.01291,-0.68359 c 0.257857,-0.0433 0.496041,-0.0701 0.685906,-0.12471 V 0.49970927 c -0.251665,-0.0873 -0.526083,-0.11844 -0.810616,-0.12471 V 8.6926575e-4 Z M 8.5160548,1.4341693 c -0.434614,1.2408 0.03936,2.55478 1.326993,3.24087 l -0.04725,-1.34745 c -0.834734,-0.44945 -0.842619,-0.86563 -1.27974,-1.89342 z m -1.750203,0.57142 c -0.07651,5e-5 -0.157968,0.005 -0.244914,0.0139 0.623551,0.38162 0.571163,1.18512 0.987694,2.09438 0.881139,1.43618 1.667255,1.33395 2.345864,1.26451 -0.621386,-0.43779 -0.816883,-0.55656 -1.201064,-1.19314 -0.706756,-1.1691 -0.739924,-2.18042 -1.88758,-2.17963 z m -5.5450896,1.73571 h 2.4942006 v 1.55888 H 1.2207622 Z m 5.6589616,0.31214 c 0.02033,1.55451 0.877032,2.9353 2.979644,3.36583 v -1.40627 c -1.646298,-0.28783 -1.810301,-0.69949 -2.979644,-1.95956 z m -0.05614,2.29764 c -0.286521,-0.003 -0.614141,0.0846 -0.989643,0.31531 0.952785,0.15725 1.211147,0.80086 1.777605,1.37448 0.644439,0.48061 1.598251,0.5513 2.227974,-0.008 -0.446524,-0.17768 -0.829847,-0.15135 -1.36158,-0.57873 -0.304822,-0.26224 -0.794792,-1.09346 -1.654356,-1.10339 z m 0.07465,1.73327 c 0.325867,1.55176 1.185843,1.9684697 2.952486,1.91048 0,-0.42383 -0.0021,-0.85966 -0.04798,-1.28145 -1.068017,0.14055 -1.494468,0.353 -2.904502,-0.62903 z"
     id="path8" />
</svg>
