<?xml version="1.0" encoding="UTF-8" standalone="no"?>
<svg
   xmlns:dc="http://purl.org/dc/elements/1.1/"
   xmlns:cc="http://creativecommons.org/ns#"
   xmlns:rdf="http://www.w3.org/1999/02/22-rdf-syntax-ns#"
   xmlns:svg="http://www.w3.org/2000/svg"
   xmlns="http://www.w3.org/2000/svg"
   viewBox="0 0 10 10"
   version="1.1"
   id="svg6"
   width="10"
   height="10">
  <metadata
     id="metadata12">
    <rdf:RDF>
      <cc:Work
         rdf:about="">
        <dc:format>image/svg+xml</dc:format>
        <dc:type
           rdf:resource="http://purl.org/dc/dcmitype/StillImage" />
        <dc:title></dc:title>
      </cc:Work>
    </rdf:RDF>
  </metadata>
  <defs
     id="defs10" />
  <g
     id="g4491"
     transform="matrix(0.37573142,0,0,0.37573142,-66.030776,83.116956)"
     style="stroke-width:2.66147566;fill:#000000">
    <g
       id="g16"
       transform="matrix(0.01351242,0,0,0.01351242,175.92413,-220.53182)"
       style="fill:#000000;stroke-width:196.96508789">
      <title
         id="title13">Layer 1</title>
      <path
         d="M 1584.1158,123.3754 C 1552.1006,83.009941 1493.7656,76.280091 1453.4004,108.29553 L 1156.7417,343.58475 1011.6914,160.70079 c -10.1138,-12.80601 -30.99535,-15.21152 -43.7622,-5.0484 L 685.29144,379.82294 C 445.23483,570.21851 378.14392,896.68341 506.76874,1161.0245 l -467.52118,370.807 c -60.539959,48.0151 -70.613918,135.3423 -22.598339,195.8819 48.015148,60.5388 135.343169,70.6133 195.881339,22.5981 l 467.52095,-370.8077 c 228.10938,185.4355 561.27429,194.4426 801.33129,4.0454 l 282.6373,-224.1699 c 12.806,-10.1143 15.2113,-30.9965 5.0485,-43.7631 l -145.051,-182.88372 296.6578,-235.28912 c 40.3662,-32.01557 47.0961,-90.34918 15.0802,-130.71582 -32.0152,-40.36536 -90.3496,-47.09424 -130.7152,-15.07923 l -296.6578,235.28876 -236.0038,-297.55774 296.657,-235.2893 c 40.3662,-32.01465 47.0959,-90.34995 15.0807,-130.71518 z"
         id="path2821"
         style="fill:#000000;stroke-width:102.15280151" />
    </g>
  </g>
</svg>
